<mxfile host="app.diagrams.net" modified="2024-04-21T16:27:16.809Z" agent="Mozilla/5.0 (Windows NT 10.0; Win64; x64) AppleWebKit/537.36 (KHTML, like Gecko) Chrome/123.0.0.0 Safari/537.36" etag="Jy8TGa8o5ePoAkq1t_h6" version="24.2.7" type="github">
  <diagram name="PÃ¡gina-1" id="FEL8lKoylKGTRK-FlNBd">
    <mxGraphModel dx="2345" dy="655" grid="1" gridSize="10" guides="1" tooltips="1" connect="1" arrows="1" fold="1" page="1" pageScale="1" pageWidth="827" pageHeight="1169" math="0" shadow="0">
      <root>
        <mxCell id="0" />
        <mxCell id="1" parent="0" />
        <mxCell id="PXfC6kN6WDb2QOkUmOPW-1" value="Sistema" style="shape=umlLifeline;perimeter=lifelinePerimeter;whiteSpace=wrap;html=1;container=1;dropTarget=0;collapsible=0;recursiveResize=0;outlineConnect=0;portConstraint=eastwest;newEdgeStyle={&quot;curved&quot;:0,&quot;rounded&quot;:0};" vertex="1" parent="1">
          <mxGeometry x="130" y="50" width="100" height="540" as="geometry" />
        </mxCell>
        <mxCell id="PXfC6kN6WDb2QOkUmOPW-2" value="" style="html=1;points=[[0,0,0,0,5],[0,1,0,0,-5],[1,0,0,0,5],[1,1,0,0,-5]];perimeter=orthogonalPerimeter;outlineConnect=0;targetShapes=umlLifeline;portConstraint=eastwest;newEdgeStyle={&quot;curved&quot;:0,&quot;rounded&quot;:0};" vertex="1" parent="PXfC6kN6WDb2QOkUmOPW-1">
          <mxGeometry x="45" y="90" width="10" height="340" as="geometry" />
        </mxCell>
        <mxCell id="PXfC6kN6WDb2QOkUmOPW-3" value="alugarFita(nome, tituloFita, diasAlugada)" style="html=1;verticalAlign=bottom;startArrow=oval;endArrow=block;startSize=8;curved=0;rounded=0;entryX=0;entryY=0;entryDx=0;entryDy=5;" edge="1" parent="PXfC6kN6WDb2QOkUmOPW-1" target="PXfC6kN6WDb2QOkUmOPW-2">
          <mxGeometry relative="1" as="geometry">
            <mxPoint x="-180" y="95" as="sourcePoint" />
          </mxGeometry>
        </mxCell>
        <mxCell id="PXfC6kN6WDb2QOkUmOPW-4" style="edgeStyle=orthogonalEdgeStyle;rounded=0;orthogonalLoop=1;jettySize=auto;html=1;curved=0;exitX=1;exitY=0;exitDx=0;exitDy=5;exitPerimeter=0;" edge="1" parent="PXfC6kN6WDb2QOkUmOPW-1" source="PXfC6kN6WDb2QOkUmOPW-2" target="PXfC6kN6WDb2QOkUmOPW-2">
          <mxGeometry relative="1" as="geometry">
            <Array as="points">
              <mxPoint x="55" y="110" />
              <mxPoint x="120" y="110" />
              <mxPoint x="120" y="140" />
            </Array>
          </mxGeometry>
        </mxCell>
        <mxCell id="PXfC6kN6WDb2QOkUmOPW-5" value="cliente = buscarClientePorNome(nome)" style="text;html=1;align=center;verticalAlign=middle;resizable=0;points=[];autosize=1;strokeColor=none;fillColor=none;" vertex="1" parent="1">
          <mxGeometry x="180" y="140" width="230" height="30" as="geometry" />
        </mxCell>
        <mxCell id="PXfC6kN6WDb2QOkUmOPW-6" value="Cliente" style="shape=umlLifeline;perimeter=lifelinePerimeter;whiteSpace=wrap;html=1;container=1;dropTarget=0;collapsible=0;recursiveResize=0;outlineConnect=0;portConstraint=eastwest;newEdgeStyle={&quot;curved&quot;:0,&quot;rounded&quot;:0};" vertex="1" parent="1">
          <mxGeometry x="360" y="60" width="100" height="530" as="geometry" />
        </mxCell>
        <mxCell id="PXfC6kN6WDb2QOkUmOPW-19" style="edgeStyle=orthogonalEdgeStyle;rounded=0;orthogonalLoop=1;jettySize=auto;html=1;curved=0;exitX=1;exitY=0;exitDx=0;exitDy=5;exitPerimeter=0;" edge="1" parent="PXfC6kN6WDb2QOkUmOPW-6" source="PXfC6kN6WDb2QOkUmOPW-7" target="PXfC6kN6WDb2QOkUmOPW-7">
          <mxGeometry relative="1" as="geometry">
            <Array as="points">
              <mxPoint x="54" y="300" />
              <mxPoint x="130" y="300" />
              <mxPoint x="130" y="320" />
            </Array>
          </mxGeometry>
        </mxCell>
        <mxCell id="PXfC6kN6WDb2QOkUmOPW-7" value="" style="html=1;points=[[0,0,0,0,5],[0,1,0,0,-5],[1,0,0,0,5],[1,1,0,0,-5]];perimeter=orthogonalPerimeter;outlineConnect=0;targetShapes=umlLifeline;portConstraint=eastwest;newEdgeStyle={&quot;curved&quot;:0,&quot;rounded&quot;:0};" vertex="1" parent="PXfC6kN6WDb2QOkUmOPW-6">
          <mxGeometry x="44" y="170" width="10" height="180" as="geometry" />
        </mxCell>
        <mxCell id="PXfC6kN6WDb2QOkUmOPW-10" value="criarNovoAluguel(tituloFita, diasAlugada)" style="html=1;verticalAlign=bottom;endArrow=block;curved=0;rounded=0;entryX=0;entryY=0;entryDx=0;entryDy=5;" edge="1" parent="1" source="PXfC6kN6WDb2QOkUmOPW-2" target="PXfC6kN6WDb2QOkUmOPW-7">
          <mxGeometry relative="1" as="geometry">
            <mxPoint x="414" y="225" as="sourcePoint" />
          </mxGeometry>
        </mxCell>
        <mxCell id="PXfC6kN6WDb2QOkUmOPW-12" value="novoAluguel = New Aluguel (tituloFita, diasAlugada)" style="html=1;verticalAlign=bottom;endArrow=block;curved=0;rounded=0;" edge="1" parent="1" source="PXfC6kN6WDb2QOkUmOPW-7">
          <mxGeometry width="80" relative="1" as="geometry">
            <mxPoint x="420" y="260" as="sourcePoint" />
            <mxPoint x="690" y="320" as="targetPoint" />
          </mxGeometry>
        </mxCell>
        <mxCell id="PXfC6kN6WDb2QOkUmOPW-18" value="novoAluguel = Aluguel" style="html=1;whiteSpace=wrap;" vertex="1" parent="1">
          <mxGeometry x="692" y="295" width="140" height="50" as="geometry" />
        </mxCell>
        <mxCell id="PXfC6kN6WDb2QOkUmOPW-20" value="inserirAluguel(novoAluguel)" style="text;html=1;align=center;verticalAlign=middle;resizable=0;points=[];autosize=1;strokeColor=none;fillColor=none;" vertex="1" parent="1">
          <mxGeometry x="410" y="338" width="160" height="30" as="geometry" />
        </mxCell>
      </root>
    </mxGraphModel>
  </diagram>
</mxfile>
